PathFileType	4	(X/Y/Z)	C:/Users/opensim2020/Desktop/walking_exp_matlab/subject02_walking08_straight_01.trc																																																																																																																									
DataRate	CameraRate	NumFrames	NumMarkers	Units	OrigDataRate	OrigDataStartFrame	OrigNumFrames																																																																																																																					
100	100	6	41	mm	100	842	324																																																																																																																					
Frame#	Time	LFHD			RFHD			LBHD			RBHD			C7			T10			CLAV			STRN			RBAK			LSHO			LUPA			LELB			LFRM			LWRA			LWRB			LFIN			RSHO			RUPA			RELB			RFRM			RWRA			RWRB			RFIN			LASI			RASI			LPSI			RPSI			LTHI			LKNE			LTIB			LANK			LHEE			LTOE			RTHI			RKNE			RTIB			RANK			RHEE			RTOE			*39			*40		
		X1	Y1	Z1	X2	Y2	Z2	X3	Y3	Z3	X4	Y4	Z4	X5	Y5	Z5	X6	Y6	Z6	X7	Y7	Z7	X8	Y8	Z8	X9	Y9	Z9	X10	Y10	Z10	X11	Y11	Z11	X12	Y12	Z12	X13	Y13	Z13	X14	Y14	Z14	X15	Y15	Z15	X16	Y16	Z16	X17	Y17	Z17	X18	Y18	Z18	X19	Y19	Z19	X20	Y20	Z20	X21	Y21	Z21	X22	Y22	Z22	X23	Y23	Z23	X24	Y24	Z24	X25	Y25	Z25	X26	Y26	Z26	X27	Y27	Z27	X28	Y28	Z28	X29	Y29	Z29	X30	Y30	Z30	X31	Y31	Z31	X32	Y32	Z32	X33	Y33	Z33	X34	Y34	Z34	X35	Y35	Z35	X36	Y36	Z36	X37	Y37	Z37	X38	Y38	Z38	X39	Y39	Z39	X40	Y40	Z40	X41	Y41	Z41
																																																																																																																												
284	2.83	868.6557	1719.17529	-1060.6051	821.81897	1689.30139	-926.5481	742.12836	1659.75159	-1117.45227	683.74756	1630.28101	-988.48993	650.05353	1515.34009	-1050.64294	595.8175	1234.40308	-1042.46411	785.41321	1441.4397	-1067.62598	837.07416	1270.76819	-1068.52979	592.29498	1336.13452	-988.31464	714.64081	1491.56958	-1234.06677	712.76984	1288.46777	-1315.71411	731.27002	1145.85327	-1326.61548	781.45099	1021.57129	-1327.36206	874.39764	927.59821	-1285.46375	830.909	909.66541	-1317.05591	872.85291	859.16919	-1318.14734	732.60358	1467.93945	-867.29126	699.39673	1275.65576	-789.5094	707.88483	1129.07532	-775.69397	736.29596	1012.17542	-758.68909	786.67017	886.63501	-779.10461	738.97571	882.25391	-747.87183	776.33228	819.50745	-746.0816	817.87329	969.54437	-1203.07727	856.29279	973.75073	-947.04083	622.35516	1015.39056	-1089.76184	631.59778	1019.46252	-974.62988	689.07483	671.14648	-1243.63501	619.86963	484.52744	-1218.10693	485.05862	344.6972	-1212.60193	387.54239	140.17369	-1184.30164	350.44247	131.72569	-1130.33997	508.62534	35.07143	-1196.7926	846.88385	675.58093	-859.72821	901.49921	475.13983	-903.0368	895.85431	286.25613	-895.31482	907.38544	94.48273	-930.20129	878.73096	42.26128	-987.25293	1061.92139	46.45521	-914.88287	748.92151	1787.64368	-999.69092	2845.1438	1033.99231	-3360.38794
285	2.84	877.42285	1720.1676	-1056.59802	829.40094	1690.22437	-922.98657	751.3692	1660.94092	-1114.75964	691.98383	1631.17004	-986.59424	658.534	1516.27991	-1048.60303	604.79156	1235.18787	-1040.15967	793.86371	1442.85803	-1065.19275	845.93781	1272.2583	-1065.9906	601.01654	1336.98132	-985.97028	722.97919	1493.08228	-1231.62	718.99042	1289.74207	-1312.86133	735.17438	1146.94775	-1322.99231	782.0462	1021.53839	-1324.36646	872.97876	924.79614	-1283.5238	828.62708	908.18793	-1314.73047	869.13745	856.48523	-1316.24841	740.85156	1469.41406	-865.01453	708.64227	1277.2312	-786.79248	717.14618	1130.56177	-773.33099	745.15308	1013.67609	-756.05701	794.72955	887.72351	-776.24396	747.36572	883.84845	-744.65552	784.34753	820.73083	-743.44012	828.1214	970.56873	-1199.01013	865.35504	975.99652	-943.36115	631.96405	1016.28918	-1087.85718	640.55487	1020.19641	-972.55408	700.37341	671.58765	-1241.99438	633.52222	485.39224	-1218.66089	495.7218	348.79559	-1212.21301	393.8132	146.58141	-1184.4696	357.94214	139.44244	-1129.81213	508.96893	35.19374	-1196.89124	856.91461	676.26788	-858.17609	907.30396	474.9809	-902.42035	899.01141	286.31277	-895.22314	908.26953	94.50706	-930.50916	878.95923	42.36466	-987.3595	1062.74658	45.58603	-915.24152	757.20245	1788.70898	-996.72156	2845.72705	1034.17285	-3357.42407
286	2.85	886.03577	1721.25391	-1052.61694	836.77954	1691.16272	-919.28308	760.52563	1662.29919	-1112.17749	699.79626	1632.30896	-984.53754	666.79211	1517.52844	-1046.28918	613.74243	1236.0675	-1037.84998	802.20404	1444.31873	-1062.80579	854.78607	1273.89612	-1063.44897	609.72565	1337.9613	-983.66003	731.27155	1494.552	-1229.19092	725.27332	1291.14172	-1310.10059	739.10211	1148.14563	-1319.38477	782.6106	1021.62067	-1321.53723	871.1637	922.22235	-1281.6687	826.16089	906.98761	-1312.52588	865.01581	853.98419	-1314.3728	748.93835	1470.94824	-862.74512	717.67706	1278.7041	-784.17749	726.43494	1132.16382	-770.89301	753.92657	1015.21265	-753.49268	803.01782	888.97437	-773.33435	755.77997	885.27136	-741.69189	792.31836	822.01978	-740.38849	838.18835	971.70288	-1194.75928	874.31281	978.0542	-939.65057	641.27136	1017.26599	-1085.77002	649.48187	1020.96021	-970.323	711.96729	671.98419	-1240.52747	647.94543	485.80438	-1219.29016	507.61316	352.78928	-1211.97461	401.34027	153.00276	-1184.34412	366.36414	147.51512	-1128.91162	509.67807	35.42624	-1196.65149	865.81335	677.05713	-856.41785	912.56561	474.88934	-901.43896	902.06146	286.23099	-895.07489	909.46332	94.63093	-930.71753	879.24939	42.50284	-987.25922	1063.7406	45.04367	-916.04138	765.37286	1789.72742	-993.74438	2845.83057	1034.18335	-3357.44287
287	2.86	894.35339	1722.33521	-1048.6897	844.08447	1692.05652	-916.09308	769.53265	1663.67932	-1109.66724	707.51062	1633.71399	-982.73059	674.83148	1518.70105	-1043.99683	622.57922	1237.00732	-1035.46655	810.42407	1445.85352	-1060.38892	863.41669	1275.5094	-1060.85461	618.35974	1338.85107	-981.42712	739.36371	1495.92371	-1226.73792	731.77399	1292.61963	-1307.43665	743.10034	1149.42664	-1315.82263	783.12024	1022.07581	-1318.92944	869.2655	919.77704	-1279.94324	823.52863	906.01025	-1310.42358	860.69122	851.7204	-1312.58752	756.86987	1472.65002	-860.56036	726.66986	1280.30701	-781.62915	735.70197	1133.83691	-768.46051	762.86133	1016.75574	-750.9079	811.61829	890.50757	-770.48804	764.53229	887.11804	-738.57281	800.54865	823.54413	-737.29425	847.99377	973.00958	-1190.50928	883.06824	979.91553	-936.05591	650.28058	1018.31567	-1083.49988	658.32562	1021.90125	-968.00647	723.84399	672.13171	-1238.99377	663.19843	485.98294	-1219.97876	521.13367	356.18936	-1211.97314	410.10773	159.45708	-1184.01172	376.37756	155.57132	-1127.92883	510.65863	35.69863	-1196.21716	874.24719	677.87042	-854.66962	917.34174	474.72287	-900.38849	904.86169	286.0672	-894.86688	909.96448	94.46287	-931.01447	879.43646	42.61004	-987.31128	1064.64709	44.83409	-916.67169	773.23468	1790.9707	-990.89825	2845.82324	1034.22119	-3357.42944
288	2.87	902.8175	1723.48669	-1044.39661	851.14764	1693.18616	-912.67139	778.36047	1665.0188	-1107.21338	715.39929	1634.83557	-980.63477	682.74597	1519.91504	-1041.83948	630.88934	1238.01135	-1033.11108	818.74677	1447.39832	-1058.12866	872.18048	1277.14392	-1058.35986	626.93555	1339.63379	-979.15698	747.45325	1497.33655	-1224.31213	738.28564	1294.11743	-1304.89709	747.15906	1150.77161	-1312.39331	783.52985	1022.35394	-1316.0946	867.15155	917.44275	-1278.26038	820.85651	905.25531	-1308.50061	856.11426	849.6283	-1310.85974	764.7298	1474.29077	-858.32495	735.32104	1282.01453	-779.10699	744.86188	1135.53857	-766.05206	771.8606	1018.47394	-748.1709	820.6272	892.17596	-767.53485	772.92749	888.8092	-735.79163	809.17407	825.1651	-734.18494	857.49988	974.36603	-1186.36145	891.69244	981.45288	-932.70459	658.91956	1019.53802	-1081.19177	667.15521	1022.93134	-965.53717	736.02789	672.07098	-1237.59094	679.17303	485.90195	-1220.55408	535.55292	359.24023	-1211.97144	419.96335	165.82635	-1183.69482	387.53851	163.77216	-1127.07959	512.02228	36.15034	-1195.60071	881.73956	678.51227	-853.15363	922.01306	474.73111	-899.44763	907.26825	285.96082	-894.15942	910.58978	94.56615	-931.01483	879.42206	42.6478	-987.2569	1064.99292	44.41306	-916.99469	781.0119	1791.97644	-988.29492	2845.12134	1034.03394	-3360.37085
289	2.88	910.88861	1724.72363	-1040.93347	858.06702	1694.16626	-909.52863	787.04047	1666.28064	-1104.78235	723.13373	1635.83093	-978.81049	690.85596	1520.87537	-1039.9165	639.36664	1238.90637	-1030.79773	826.83142	1448.81787	-1055.83691	880.71844	1278.66785	-1055.82971	635.4317	1340.43396	-976.83478	755.40662	1498.64282	-1221.91797	744.90778	1295.55762	-1302.46924	751.34161	1152.10596	-1309.07751	784.00311	1022.94531	-1313.81641	864.92059	915.07904	-1276.56543	818.16974	904.71753	-1307.03333	851.4754	847.78314	-1309.25317	772.58057	1475.87231	-856.24695	744.04266	1283.68469	-776.63849	753.90741	1137.0929	-763.67975	781.1416	1020.56287	-745.5694	829.37231	893.73279	-764.5249	781.9483	890.64319	-732.72974	818.01538	826.91516	-731.01465	866.56854	975.84363	-1182.4668	900.03516	982.64148	-929.6449	667.2774	1020.85254	-1078.75903	675.9903	1024.23755	-962.91669	748.56696	671.90039	-1236.72302	695.64459	485.70859	-1221.05164	550.46527	362.03812	-1211.57544	431.41013	171.81947	-1183.36523	399.59811	171.54539	-1126.4386	514.44592	36.8536	-1194.81372	888.29437	679.09662	-852.11383	926.46674	474.7869	-898.54327	909.41791	285.93173	-893.2005	910.94763	94.60343	-930.89459	879.33844	42.60869	-987.12305	1065.2533	44.23072	-917.28174	788.62793	1793.20764	-985.65198	2845.19897	1034.16943	-3360.29565
